<svg xmlns="http://www.w3.org/2000/svg" viewBox="0 0 122 29" fill="#fff" fill-rule="evenodd" stroke="#000" stroke-linecap="round" stroke-linejoin="round"><use href="#B" x=".5" y=".5"/><defs><linearGradient y2="0.75%" x2="101.08%" y1="91.70%" x1="24.74%" id="A"><stop offset="28.000000000000004%" stop-color="#cd163f"/><stop offset="90%" stop-color="#f58025"/></linearGradient></defs><symbol id="B" overflow="visible"><g stroke="none" fill-rule="nonzero"><path d="M64.272 17.466c-2.694 0-4.303 1.413-4.303 3.786 0 2.358 1.609 3.772 4.303 3.772 2.701 0 4.317-1.406 4.317-3.772 0-2.372-1.616-3.786-4.317-3.786zm0 5.458c-.791 0-1.323-.679-1.323-1.693 0-1.022.532-1.7 1.323-1.7.805 0 1.323.672 1.323 1.7 0 1.05-.504 1.693-1.323 1.693zm34.001.875a1.04 1.04 0 0 0 1.036 1.05h2.015v-7.2h-3.051zm0-8.516h3.051v1.49h-3.051zm8.572 2.183c-2.694 0-4.303 1.413-4.303 3.786 0 2.358 1.609 3.772 4.303 3.772 2.701 0 4.317-1.406 4.317-3.772 0-2.372-1.616-3.786-4.317-3.786zm0 5.458c-.791 0-1.323-.679-1.323-1.693 0-1.022.532-1.7 1.323-1.7.805 0 1.323.672 1.323 1.7.007 1.05-.504 1.693-1.323 1.693zM49.773 6.039c-2.694 0-4.303 1.413-4.303 3.786 0 2.358 1.609 3.772 4.303 3.772 2.701 0 4.317-1.406 4.317-3.772 0-2.372-1.609-3.786-4.317-3.786zm0 5.465c-.791 0-1.323-.679-1.323-1.693 0-1.022.532-1.7 1.323-1.7.805 0 1.323.672 1.323 1.7.007 1.043-.504 1.693-1.323 1.693zm42.643.077l-2.897.077c-1.239 0-1.672-.126-1.917-.924h4.884c.126 0 .231-.105.231-.231v-.56c0-2.477-1.316-3.87-3.835-3.905-2.813-.035-4.129 1.441-4.129 3.667 0 2.442 1.288 3.905 4.359 3.905 2.197 0 3.191-.896 3.387-1.924 0-.042-.042-.105-.084-.105zm-3.52-3.87c.812 0 1.176.665 1.176 1.49h-2.505c0-.833.28-1.49 1.33-1.49zm7.921-3.849H94.83a1.04 1.04 0 0 0-1.036 1.05v8.509h3.023zm-38.395 9.678c1.19.112 2.526-.133 3.037-.238.126-.028.21-.133.21-.266V11.28s-.56.063-1.889.063c-1.148 0-1.868-.595-1.868-1.553 0-.966.672-1.56 1.756-1.56 1.253 0 1.994.154 1.994.154V6.606a.27.27 0 0 0-.21-.266c-.504-.112-1.826-.364-2.869-.301-2.239.133-3.632 1.441-3.632 3.765 0 2.204 1.316 3.541 3.471 3.737zm30.082 4.08v.931c-.434-.665-1.099-1.106-2.092-1.106-2.281 0-3.569 1.413-3.569 3.772v.028c0 2.358 1.288 3.772 3.569 3.772 1.001 0 1.658-.441 2.092-1.106v.161c0 .427.343.777.763.777h2.113V17.62zm-1.33 5.304c-.791 0-1.323-.679-1.323-1.693 0-1.008.532-1.693 1.323-1.693.819 0 1.323.651 1.323 1.693.007 1.043-.504 1.693-1.323 1.693zM81.493 6.221l-.854 4.709-.952-4.709h-3.436L75.3 10.93l-.854-4.709h-2.862 0L68.604 6.2c-.448 0-.882.273-1.12.707L65.791 9.37V3.835h-1.847a1.04 1.04 0 0 0-1.036 1.05v8.509h2.883V9.811l1.973 2.876c.238.434.672.707 1.12.707l2.988.021-2.918-3.849 2.631-3.345 1.721 7.193h3.219c.357 0 .658-.259.721-.623l.616-4.268h.238l.616 4.268c.063.357.364.623.721.623h3.219l1.721-7.2zM50.494 20.762c0 1.232-.392 1.861-1.176 1.861-.483 0-.98-.161-.98-1.351v-3.625h-2.883v4.108c0 2.071 1.036 3.205 2.911 3.205.945 0 1.756-.336 2.351-.952v.056c0 .427.343.777.763.777h1.896v-7.193h-2.883zm28.725-3.282a3.02 3.02 0 0 0-2.47 1.218c-.497-.784-1.316-1.218-2.358-1.218-.875 0-1.658.336-2.239.945v-.777H69.52v7.2h2.855v-3.471c0-.931.42-1.532 1.078-1.532.469 0 .896.161.896 1.309v3.695h2.869v-3.471c0-.945.406-1.532 1.064-1.532.469 0 .896.161.896 1.309v3.695h2.855v-4.178c0-2.057-1.001-3.191-2.813-3.191zm37.884-.014c-.945 0-1.756.336-2.351.959v-.777h-2.659v7.2h2.883v-3.471c0-.952.462-1.574 1.176-1.574.483 0 .98.161.98 1.351v3.695H120v-4.178c0-2.071-1.029-3.205-2.897-3.205zm-21.622-2.183h-2.883v8.509a1.04 1.04 0 0 0 1.036 1.05h1.847v-5.08h1.742v-2.12h-1.742zm5.808-11.42h-1.987a1.04 1.04 0 0 0-1.036 1.05v8.509h3.023zm-62.747 11.42c-.308 0-.588.189-.7.476l-3.632 9.09h3.016l.672-1.805h3.471l.371 1.043h0a1.26 1.26 0 0 0 1.134.756h2.365l-3.821-9.566zm.133 5.626l.994-2.701.952 2.701zM57.73 15.29h-3.058v8.509a1.04 1.04 0 0 0 1.036 1.05h2.022v-5.08h1.742v-2.12H57.73zM44.077 9.741c-.308-.392-.721-.679-1.344-.791v-.028c1.337-.161 2.134-1.071 2.134-2.54 0-1.84-1.316-2.554-3.45-2.554h-5.164v9.58h3.051V9.923h.84c.42 0 .847.07.966.497l.861 2.505c.049.28.287.483.56.483h2.82l-1.057-3.198c-.035-.175-.112-.329-.217-.469zm-3.52-1.819h-1.204V5.892h1.253c.623 0 1.218.126 1.218.987-.007.959-.63 1.043-1.267 1.043z" fill="#cd163f"/><path d="M7.886 8.586L18.977.371c.161-.119.077-.371-.119-.371H9.762a3.98 3.98 0 0 0-2.806 1.162L1.162 6.949C.42 7.697 0 8.705 0 9.762v8.187c0 1.057.42 2.064 1.162 2.813l5.787 5.787c.749.742 1.763 1.162 2.813 1.162h7.872c.217 0 .287-.294.084-.392L2.078 19.943a1.87 1.87 0 0 1-1.071-1.686v-3.926a1.3 1.3 0 0 1 .525-1.043l2.253-1.672V8.579h4.101z" fill="url(#A)"/><path d="M18.67 11.749l-1.071 2.911h2.092zm-8.999.119c0-.931-.637-1.064-1.309-1.064h-1.35v2.197h1.302c.686-.007 1.358-.098 1.358-1.134zm17.031-4.759l-5.388-5.388a.89.89 0 0 0-1.134-.098L9.81 8.607c1.966.126 3.156.917 3.156 2.736 0 1.581-.854 2.568-2.302 2.743v.028c.672.126 1.12.434 1.448.854.119.147.196.322.238.497l.819 2.484 3.527-8.831a.82.82 0 0 1 .756-.511h3.1l4.122 10.314h-2.547c-.518 0-1.001-.329-1.218-.819h0l-.399-1.127h-3.744l-.728 1.945h-5.591a.61.61 0 0 1-.602-.525l-.931-2.701c-.126-.462-.588-.539-1.043-.539h-.903v3.758H3.785v-6.256l-1.903 1.281a.63.63 0 0 0-.273.525v3.982c0 .259.154.49.385.588l17.949 7.515a.89.89 0 0 0 .98-.182l5.78-5.759c.651-.644 1.015-1.525 1.015-2.442V9.544a3.42 3.42 0 0 0-1.015-2.435z" fill="#cd163f"/></g></symbol></svg>