<svg xmlns="http://www.w3.org/2000/svg" viewBox="0 0 65 12" fill="#fff" fill-rule="evenodd" stroke="#000" stroke-linecap="round" stroke-linejoin="round"><use href="#A" x=".5" y=".5"/><symbol id="A" overflow="visible"><path d="M63.252.357v1.906c-.987-.373-1.867-.561-2.636-.561-.456 0-.819.084-1.092.248s-.412.367-.412.606c0 .318.308.601.928.854l1.792.872C63.281 4.973 64 5.89 64 7.042c0 .958-.381 1.722-1.151 2.287-.764.571-1.792.854-3.072.854a14.11 14.11 0 0 1-1.592-.079c-.471-.054-1.013-.155-1.613-.304V7.806c1.101.373 2.104.561 3.007.561 1.078 0 1.613-.312 1.613-.942 0-.314-.219-.567-.665-.765l-1.99-.848c-.734-.332-1.28-.734-1.637-1.211a2.74 2.74 0 0 1-.53-1.663c0-.882.371-1.592 1.106-2.133S59.196 0 60.417 0c.397 0 .854.035 1.36.1l1.474.257zm-56.373 0v1.906c-.987-.373-1.865-.561-2.635-.561-.457 0-.819.084-1.092.248s-.412.367-.412.606c0 .318.312.601.933.854l1.792.872c1.443.691 2.163 1.608 2.163 2.76a2.7 2.7 0 0 1-1.146 2.287c-.769.571-1.792.854-3.076.854a14.28 14.28 0 0 1-1.594-.079C1.341 10.053.805 9.949.2 9.8V7.806c1.106.373 2.109.561 3.006.561 1.078 0 1.613-.312 1.613-.942 0-.314-.218-.567-.66-.765l-1.99-.848C1.429 5.479.883 5.077.532 4.6.174 4.119 0 3.567 0 2.937 0 2.055.369 1.345 1.107.805S2.825 0 4.046 0A10.96 10.96 0 0 1 5.41.1l1.469.257zM8.932.179h2.919v9.826H8.932zm12.323 0v1.816h-4.337v2.179h3.761v1.637h-3.761v2.287h4.425v1.906h-7.234V.179zm13.626 0v9.826h-2.725v-6.48l-2.827 6.571h-1.682l-2.719-6.571v6.48h-1.971V.179h3.563l2.432 6.015L31.497.179zm9.399 0v1.816h-4.313v2.179h3.761v1.637h-3.761v2.287h4.402v1.906h-7.234V.179zm10.242 0v9.826h-3.096l-3.474-6.302v6.302h-1.969V.179h3.186l3.384 6.194V.179z" stroke="none" fill="#099"/></symbol></svg>